# xmcd CD database file
#
# Track frame offsets:
#	150
#	15682
#	26860
#	39007
#	48377
#	59630
#	73547
#	86666
#	92057
#	105586
#	115645
#	129602
#	144070
#	158240
#	174952
#	190271
#
# Disc length: 2738 seconds
#
# Revision: 1
# Processed by: cddbd v1.5.1PL0 Copyright (c) Steve Scherf et al.
# Submitted via: CDex 1.51
#
DISCID=cc0ab010
DTITLE=Dave Harris - The Busker's Blues
DYEAR=2004
DGENRE=Blues
TTITLE0=Train Whistle Blues
TTITLE1=The Busker's Blues
TTITLE2=France Blues
TTITLE3=Auto Valve Zydeco
TTITLE4=I Feel So Good
TTITLE5=Christmas Blues
TTITLE6=Slim's Blue Zydeco
TTITLE7=Cajun Tune
TTITLE8=Hawaii Blues
TTITLE9=My Island Home (Rainy Day Blues)
TTITLE10=Move On Down The Line
TTITLE11=I'm Still In Love With You
TTITLE12=Wanna Be
TTITLE13=Left Me With A Broken Heart
TTITLE14=Billy, Bo and Jerome
TTITLE15=It Feels So Good
EXTD=YEAR: 2004
EXTT0=
EXTT1=
EXTT2=
EXTT3=
EXTT4=
EXTT5=
EXTT6=
EXTT7=
EXTT8=
EXTT9=
EXTT10=
EXTT11=
EXTT12=
EXTT13=
EXTT14=
EXTT15=
PLAYORDER=
